<?xml version="1.0" encoding="UTF-8"?>
<!DOCTYPE svg PUBLIC "-//W3C//DTD SVG 1.1//EN" "http://www.w3.org/Graphics/SVG/1.1/DTD/svg11.dtd">
<svg xmlns="http://www.w3.org/2000/svg" version="1.1" width="1089px" height="229px" style="shape-rendering:geometricPrecision; text-rendering:geometricPrecision; image-rendering:optimizeQuality; fill-rule:evenodd; clip-rule:evenodd" xmlns:xlink="http://www.w3.org/1999/xlink">
<g><path style="opacity:0.269" fill="#b34825" d="M 70.5,20.5 C 116.997,19.5012 163.664,19.1679 210.5,19.5C 210.074,23.4268 209.074,27.0935 207.5,30.5C 207.833,27.1667 208.167,23.8333 208.5,20.5C 162.5,20.5 116.5,20.5 70.5,20.5 Z"/></g>
<g><path style="opacity:0.999" fill="#868686" d="M 331.5,18.5 C 349.077,18.1746 366.577,18.5079 384,19.5C 386.133,47.1557 388.133,74.8224 390,102.5C 406.212,75.2449 422.046,47.7449 437.5,20C 459.315,19.0128 480.982,19.3461 502.5,21C 466.418,81.8323 430.085,142.499 393.5,203C 375.593,203.825 357.76,203.658 340,202.5C 337.553,173.808 334.887,145.141 332,116.5C 313.958,145.418 295.792,174.251 277.5,203C 259.593,203.825 241.76,203.658 224,202.5C 219.983,141.529 216.483,80.5295 213.5,19.5C 234.742,19.1732 255.909,19.5065 277,20.5C 277.98,47.8341 278.98,75.1675 280,102.5C 296.941,74.2691 314.108,46.2691 331.5,18.5 Z"/></g>
<g><path style="opacity:1" fill="#dadada" d="M 860.5,19.5 C 883.075,19.1728 905.575,19.5061 928,20.5C 930.346,44.1391 932.513,67.9725 934.5,92C 934.265,92.8732 933.931,93.7065 933.5,94.5C 934.591,102.259 935.758,109.926 937,117.5C 956.791,84.7484 976.958,52.2484 997.5,20C 1020.65,19.012 1043.65,19.3453 1066.5,21C 1025.87,81.9578 984.866,142.625 943.5,203C 924.212,203.451 905.045,203.618 886,203.5C 876.426,142.12 867.926,80.7862 860.5,19.5 Z"/></g>
<g><path style="opacity:1" fill="#e94e1b" d="M 206.5,37.5 C 206.5,38.1667 206.167,38.5 205.5,38.5C 202.134,43.9351 200.467,49.9351 200.5,56.5C 198.259,57.2998 197.259,58.9664 197.5,61.5C 196.5,61.5 195.5,61.5 194.5,61.5C 194.5,62.5 194.5,63.5 194.5,64.5C 193.127,64.3433 191.793,64.51 190.5,65C 190.833,65.3333 191.167,65.6667 191.5,66C 190.376,66.2492 189.376,66.7492 188.5,67.5C 188.624,68.1067 188.957,68.44 189.5,68.5C 182.008,73.4146 174.341,78.0812 166.5,82.5C 164.738,82.6427 163.071,82.3094 161.5,81.5C 160.707,82.3554 161.04,83.1887 162.5,84C 159.504,84.6605 157.004,86.1605 155,88.5C 152.823,89.5234 150.656,89.6901 148.5,89C 149.337,90.0113 149.67,91.1779 149.5,92.5C 148.127,92.3433 146.793,92.51 145.5,93C 146.861,94.5843 147.528,96.4176 147.5,98.5C 150.187,98.3359 152.854,98.5026 155.5,99C 159.828,101.6 164.162,104.1 168.5,106.5C 168.45,111.35 170.783,115.017 175.5,117.5C 180.126,127.634 181.626,138.301 180,149.5C 177.868,153.208 177.035,157.208 177.5,161.5C 173.75,163.731 172.083,167.064 172.5,171.5C 170.857,171.52 169.524,170.853 168.5,169.5C 167.914,169.709 167.414,170.043 167,170.5C 165.552,174.455 164.218,178.455 163,182.5C 160.929,183.103 159.762,184.436 159.5,186.5C 154.97,191.013 149.637,194.346 143.5,196.5C 138.026,197.469 132.693,198.969 127.5,201C 111.781,204.337 96.1147,204.17 80.5,200.5C 82.8912,199.191 82.8912,198.191 80.5,197.5C 78.7951,198.545 77.2951,199.878 76,201.5C 70.6473,200.69 65.4806,199.19 60.5,197C 57.854,196.503 55.1873,196.336 52.5,196.5C 44.7223,193.382 37.7223,189.049 31.5,183.5C 27.9688,179.137 24.6354,174.637 21.5,170C 24.0407,166.634 26.7074,163.468 29.5,160.5C 36.4434,156.223 42.4434,150.89 47.5,144.5C 50.8991,142.612 53.8991,140.112 56.5,137C 58.1147,136.938 59.4481,136.771 60.5,136.5C 75.3764,153.729 93.3764,157.896 114.5,149C 122.579,142.793 123.246,136.126 116.5,129C 113.048,128.115 109.714,127.282 106.5,126.5C 97.4317,125.821 88.265,125.155 79,124.5C 77.1953,115.524 77.0287,106.524 78.5,97.5C 91.4841,88.3384 104.817,79.6717 118.5,71.5C 119.93,71.4208 121.264,71.7542 122.5,72.5C 123.231,70.5988 123.231,68.5988 122.5,66.5C 101.5,66.5 80.5,66.5 59.5,66.5C 60.3147,61.5543 61.8147,56.8876 64,52.5C 64.4983,49.1832 64.665,45.8499 64.5,42.5C 65.8589,41.9935 66.8589,40.9935 67.5,39.5C 68.5836,40.6651 69.4169,41.9984 70,43.5C 70.3333,43.1667 70.6667,42.8333 71,42.5C 69.7399,39.1539 68.9066,35.4872 68.5,31.5C 69.5,31.5 70.5,31.5 71.5,31.5C 71.2837,33.6807 72.117,35.3474 74,36.5C 74.3333,35.8333 74.6667,35.1667 75,34.5C 74.6726,31.7389 74.8393,29.0722 75.5,26.5C 75.2908,25.0055 74.6241,23.8388 73.5,23C 73.8333,22.6667 74.1667,22.3333 74.5,22C 118.837,21.1667 163.17,21.3334 207.5,22.5C 206.725,26.632 206.059,30.7987 205.5,35C 205.528,36.0698 205.861,36.9032 206.5,37.5 Z"/></g>
<g><path style="opacity:1" fill="#dadada" d="M 509.5,19.5 C 535.835,19.3334 562.169,19.5 588.5,20C 647.377,26.8962 672.211,59.7295 663,118.5C 653.559,154.612 631.392,179.446 596.5,193C 587.326,195.96 577.992,198.294 568.5,200C 546.711,201.848 524.877,202.681 503,202.5C 489.898,202.109 476.898,202.109 464,202.5C 462.795,201.929 461.628,201.262 460.5,200.5C 476.518,139.372 492.852,79.0385 509.5,19.5 Z M 556.5,73.5 C 563.821,74.0826 571.154,74.5826 578.5,75C 598.956,80.5874 606.122,93.7541 600,114.5C 593.755,131.738 581.588,142.238 563.5,146C 554.524,147.207 545.524,147.54 536.5,147C 544.246,122.493 550.912,97.9928 556.5,73.5 Z"/></g>
<g><path style="opacity:1" fill="#dadada" d="M 702.5,19.5 C 754.167,19.5 805.833,19.5 857.5,19.5C 853.624,36.7841 848.957,53.7841 843.5,70.5C 812.646,70.9207 781.813,70.9207 751,70.5C 748.946,74.1846 747.113,78.0179 745.5,82C 746.097,83.6282 745.763,85.2949 744.5,87C 773.831,87.5 803.165,87.6666 832.5,87.5C 829.301,102.631 825.634,117.631 821.5,132.5C 791.833,132.5 762.167,132.5 732.5,132.5C 730.721,138.589 729.054,144.422 727.5,150C 759.505,150.167 791.505,150.667 823.5,151.5C 819.371,168.582 815.037,185.249 810.5,201.5C 758.109,202.754 705.775,202.754 653.5,201.5C 669.263,139.999 685.597,79.3323 702.5,19.5 Z"/></g>
<g><path style="opacity:1" fill="#e35323" d="M 70.5,20.5 C 116.5,20.5 162.5,20.5 208.5,20.5C 208.167,23.8333 207.833,27.1667 207.5,30.5C 207.326,32.861 206.993,35.1944 206.5,37.5C 205.861,36.9032 205.528,36.0698 205.5,35C 206.059,30.7987 206.725,26.632 207.5,22.5C 163.17,21.3334 118.837,21.1667 74.5,22C 74.1667,22.3333 73.8333,22.6667 73.5,23C 74.6241,23.8388 75.2908,25.0055 75.5,26.5C 74.8393,29.0722 74.6726,31.7389 75,34.5C 74.6667,35.1667 74.3333,35.8333 74,36.5C 72.117,35.3474 71.2837,33.6807 71.5,31.5C 70.5,31.5 69.5,31.5 68.5,31.5C 68.9066,35.4872 69.7399,39.1539 71,42.5C 70.6667,42.8333 70.3333,43.1667 70,43.5C 69.4169,41.9984 68.5836,40.6651 67.5,39.5C 66.8589,40.9935 65.8589,41.9935 64.5,42.5C 65.898,34.8992 67.898,27.5659 70.5,20.5 Z"/></g>
<g><path style="opacity:0.227" fill="#c15634" d="M 205.5,38.5 C 204.202,44.7095 202.536,50.7095 200.5,56.5C 200.467,49.9351 202.134,43.9351 205.5,38.5 Z"/></g>
<g><path style="opacity:1" fill="#d0542c" d="M 200.5,56.5 C 200.628,58.6547 200.128,60.6547 199,62.5C 195.89,64.6358 192.723,66.6358 189.5,68.5C 188.957,68.44 188.624,68.1067 188.5,67.5C 189.376,66.7492 190.376,66.2492 191.5,66C 191.167,65.6667 190.833,65.3333 190.5,65C 191.793,64.51 193.127,64.3433 194.5,64.5C 194.5,63.5 194.5,62.5 194.5,61.5C 195.5,61.5 196.5,61.5 197.5,61.5C 197.259,58.9664 198.259,57.2998 200.5,56.5 Z"/></g>
<g><path style="opacity:0.804" fill="#c6502d" d="M 64.5,42.5 C 64.665,45.8499 64.4983,49.1832 64,52.5C 61.8147,56.8876 60.3147,61.5543 59.5,66.5C 80.5,66.5 101.5,66.5 122.5,66.5C 123.231,68.5988 123.231,70.5988 122.5,72.5C 121.264,71.7542 119.93,71.4208 118.5,71.5C 119.058,70.2101 120.058,69.3768 121.5,69C 121,68.5 120.5,68 120,67.5C 99.2423,68.4934 78.409,68.8267 57.5,68.5C 59.2314,59.5671 61.5647,50.9004 64.5,42.5 Z"/></g>
<g><path style="opacity:1" fill="#d05328" d="M 166.5,82.5 C 160.942,86.8648 154.942,90.6982 148.5,94C 153.136,96.3178 157.802,98.6511 162.5,101C 164.996,102.331 166.996,104.164 168.5,106.5C 164.162,104.1 159.828,101.6 155.5,99C 152.854,98.5026 150.187,98.3359 147.5,98.5C 147.528,96.4176 146.861,94.5843 145.5,93C 146.793,92.51 148.127,92.3433 149.5,92.5C 149.67,91.1779 149.337,90.0113 148.5,89C 150.656,89.6901 152.823,89.5234 155,88.5C 157.004,86.1605 159.504,84.6605 162.5,84C 161.04,83.1887 160.707,82.3554 161.5,81.5C 163.071,82.3094 164.738,82.6427 166.5,82.5 Z"/></g>
<g><path style="opacity:1" fill="#d15229" d="M 168.5,106.5 C 176.685,113.536 181.185,122.536 182,133.5C 182.567,143.276 181.067,152.61 177.5,161.5C 177.035,157.208 177.868,153.208 180,149.5C 181.626,138.301 180.126,127.634 175.5,117.5C 170.783,115.017 168.45,111.35 168.5,106.5 Z"/></g>
<g><path style="opacity:0.388" fill="#a64d30" d="M 78.5,97.5 C 77.0287,106.524 77.1953,115.524 79,124.5C 88.265,125.155 97.4317,125.821 106.5,126.5C 96.5837,126.819 86.7504,126.486 77,125.5C 76.8333,120.833 76.6667,116.167 76.5,111.5C 76.5067,106.449 77.1734,101.783 78.5,97.5 Z"/></g>
<g><path style="opacity:0.725" fill="#b8502c" d="M 60.5,136.5 C 59.4481,136.771 58.1147,136.938 56.5,137C 53.8991,140.112 50.8991,142.612 47.5,144.5C 50.2956,141.203 53.2956,138.036 56.5,135C 58.3524,134.227 59.6857,134.727 60.5,136.5 Z"/></g>
<g><path style="opacity:0.447" fill="#bd4f30" d="M 47.5,144.5 C 42.4434,150.89 36.4434,156.223 29.5,160.5C 35.177,154.824 41.177,149.491 47.5,144.5 Z"/></g>
<g><path style="opacity:0.71" fill="#c14e2c" d="M 29.5,160.5 C 26.7074,163.468 24.0407,166.634 21.5,170C 24.6354,174.637 27.9688,179.137 31.5,183.5C 26.6098,179.777 22.6098,175.277 19.5,170C 22.0328,165.967 25.3661,162.8 29.5,160.5 Z"/></g>
<g><path style="opacity:1" fill="#d45125" d="M 177.5,161.5 C 174.567,172.091 168.567,180.424 159.5,186.5C 159.762,184.436 160.929,183.103 163,182.5C 164.218,178.455 165.552,174.455 167,170.5C 167.414,170.043 167.914,169.709 168.5,169.5C 169.524,170.853 170.857,171.52 172.5,171.5C 172.083,167.064 173.75,163.731 177.5,161.5 Z"/></g>
<g><path style="opacity:1" fill="#d65026" d="M 52.5,196.5 C 55.1873,196.336 57.854,196.503 60.5,197C 65.4806,199.19 70.6473,200.69 76,201.5C 77.2951,199.878 78.7951,198.545 80.5,197.5C 82.8912,198.191 82.8912,199.191 80.5,200.5C 96.1147,204.17 111.781,204.337 127.5,201C 132.693,198.969 138.026,197.469 143.5,196.5C 128.996,203.067 113.663,206.067 97.5,205.5C 81.6593,206.031 66.6593,203.031 52.5,196.5 Z"/></g>
</svg>
