<svg width="455" height="361" viewBox="0 0 455 361" fill="none" xmlns="http://www.w3.org/2000/svg">
<g clip-path="url(#clip0_3_838)">
<path fill-rule="evenodd" clip-rule="evenodd" d="M87.2988 221.861C82.6774 229.202 61.2452 263.041 39.6701 297.06C18.095 331.078 0.442383 359.188 0.442383 359.524C0.442383 359.858 19.3945 360.134 42.5599 360.134H84.6757L93.6586 346.779C105.679 328.911 119.26 310.576 127.743 300.763C136.468 290.671 136.449 287.645 127.616 280.535C110.86 267.05 106.926 262.701 101.294 251.428C94.564 237.964 92.0252 223.505 94.9254 215.176C98.0855 206.098 96.1526 207.794 87.2988 221.861ZM354.701 210.652C353.224 211.838 346.73 224.236 340.27 238.207C328.739 263.147 328.415 263.625 322.403 264.552C284.34 270.421 251.996 281.736 199.24 307.64C142.155 335.67 111.569 354.673 117.483 358.438C120.149 360.135 454.836 360.935 454.836 359.244C454.836 357.466 359.689 208.498 358.555 208.498C357.911 208.498 356.178 209.469 354.701 210.222" fill="#0B601E"/>
<path fill-rule="evenodd" clip-rule="evenodd" d="M195.797 49.564C178.758 76.793 156.57 112.034 146.489 127.875L128.162 156.677L138.984 145.682C165.577 118.665 205.451 110.373 236.245 125.459C249.015 131.714 249.442 135.941 239.471 157.385C235.433 166.07 231.577 173.839 230.903 174.653C230.228 175.466 223.216 173.572 215.319 170.443C188.844 159.956 147.99 162.715 134.842 175.878C121.637 189.098 130.261 221.382 150.575 234.767C187.718 259.241 230.137 255.972 314.084 222.17C332.756 214.65 350.46 208.498 353.426 208.498C357.045 208.498 358.539 207.79 357.97 206.344C356.381 202.314 229.199 0.863328 227.985 0.458328C227.323 0.236028 212.837 22.3335 195.797 49.564Z" fill="#DC2C34"/>
</g>
<defs>
<clipPath id="clip0_3_838">
<rect width="455" height="361" fill="white"/>
</clipPath>
</defs>
</svg>
