<svg width="213" height="57" viewBox="0 0 213 57" fill="none" xmlns="http://www.w3.org/2000/svg">
<path opacity="0.899" fill-rule="evenodd" clip-rule="evenodd" d="M0.5 0.5C5.1667 0.5 9.8333 0.5 14.5 0.5C18.3667 12.5747 22.5333 24.5747 27 36.5C32.1884 24.7693 36.6884 12.7693 40.5 0.5C44.8333 0.5 49.1667 0.5 53.5 0.5C53.5 15.5 53.5 30.5 53.5 45.5C50.5 45.5 47.5 45.5 44.5 45.5C44.6665 35.1613 44.4998 24.828 44 14.5C40.5301 24.5768 36.8634 34.5768 33 44.5C29.27 45.4601 25.4367 45.7935 21.5 45.5C18.5042 35.347 15.0042 25.347 11 15.5C10.5002 25.4944 10.3335 35.4944 10.5 45.5C7.1667 45.5 3.8333 45.5 0.5 45.5C0.5 30.5 0.5 15.5 0.5 0.5Z" fill="#FEFFFE"/>
<path opacity="0.851" fill-rule="evenodd" clip-rule="evenodd" d="M90 2C93 2 96 2 99 2C99 4.6667 99 7.3333 99 10C96 10 93 10 90 10C90 7.3333 90 4.6667 90 2Z" fill="#FEFFFE"/>
<path opacity="0.827" fill-rule="evenodd" clip-rule="evenodd" d="M103 2C106 2 109 2 112 2C112 4.6667 112 7.3333 112 10C109 10 106 10 103 10C103 7.3333 103 4.6667 103 2Z" fill="#FEFFFE"/>
<path opacity="0.88" fill-rule="evenodd" clip-rule="evenodd" d="M116.5 13.5C124.174 13.3336 131.841 13.5003 139.5 14C141.676 14.1629 143.509 14.9963 145 16.5C145.5 26.1609 145.666 35.8276 145.5 45.5C136.827 45.6664 128.16 45.4998 119.5 45C118.069 44.5348 116.903 43.7014 116 42.5C115.333 36.8333 115.333 31.1667 116 25.5C116.833 24.6667 117.667 23.8333 118.5 23C124.491 22.5005 130.491 22.3338 136.5 22.5C136.5 21.5 136.5 20.5 136.5 19.5C129.833 19.5 123.167 19.5 116.5 19.5C116.5 17.5 116.5 15.5 116.5 13.5ZM124.5 27.5C128.5 27.5 132.5 27.5 136.5 27.5C136.5 31.5 136.5 35.5 136.5 39.5C132.5 39.5 128.5 39.5 124.5 39.5C124.5 35.5 124.5 31.5 124.5 27.5Z" fill="#FEFFFE"/>
<path opacity="0.917" fill-rule="evenodd" clip-rule="evenodd" d="M183.5 15.0623C191.507 14.8959 199.507 15.0626 207.5 15.5623C208.333 16.3956 209.167 17.229 210 18.0623C210.667 22.0623 210.667 26.0623 210 30.0623C209.167 30.8956 208.333 31.729 207.5 32.5623C201.509 33.0618 195.509 33.2285 189.5 33.0623C189.5 35.729 189.5 38.3956 189.5 41.0623C195.833 41.0623 202.167 41.0623 208.5 41.0623C208.5 42.729 208.5 44.3956 208.5 46.0623C200.16 46.2287 191.827 46.062 183.5 45.5623C182.584 45.1881 181.75 44.6881 181 44.0623C180.333 35.0623 180.333 26.0623 181 17.0623C181.995 16.4964 182.828 15.8297 183.5 15.0623ZM189.5 19.0623C193.833 19.0623 198.167 19.0623 202.5 19.0623C202.5 21.3956 202.5 23.729 202.5 26.0623C198.167 26.0623 193.833 26.0623 189.5 26.0623C189.5 23.729 189.5 21.3956 189.5 19.0623Z" fill="#FEFFFE"/>
<path opacity="0.016" fill-rule="evenodd" clip-rule="evenodd" d="M211.5 14.5C210.833 13.1667 210.833 13.1667 211.5 14.5Z" fill="#FEFFFE"/>
<path opacity="0.888" fill-rule="evenodd" clip-rule="evenodd" d="M58.5 14.5C67.1731 14.3336 75.8397 14.5002 84.5 15C85.3081 15.3076 85.9747 15.8076 86.5 16.5C87.4743 26.1135 87.8076 35.7801 87.5 45.5C78.4938 45.6664 69.4938 45.4998 60.5 45C59.5838 44.6258 58.7504 44.1258 58 43.5C57.3333 37.1667 57.3333 30.8333 58 24.5C58.7504 23.8742 59.5838 23.3742 60.5 23C66.1569 22.5006 71.8236 22.3339 77.5 22.5C77.5 21.5 77.5 20.5 77.5 19.5C71.1667 19.5 64.8333 19.5 58.5 19.5C58.5 17.8333 58.5 16.1667 58.5 14.5ZM66.5 27.5C70.1667 27.5 73.8333 27.5 77.5 27.5C77.5 31.8333 77.5 36.1667 77.5 40.5C73.8333 40.5 70.1667 40.5 66.5 40.5C66.5 36.1667 66.5 31.8333 66.5 27.5Z" fill="#FEFFFE"/>
<path opacity="0.916" fill-rule="evenodd" clip-rule="evenodd" d="M103 15C106 15 109 15 112 15C112 29 112 43 112 57C108 57 104 57 100 57C100 54.3333 100 51.6667 100 49C101 49 102 49 103 49C103 37.6667 103 26.3333 103 15Z" fill="#FEFFFE"/>
<path opacity="0.916" fill-rule="evenodd" clip-rule="evenodd" d="M90 15C93 15 96 15 99 15C99 29 99 43 99 57C95 57 91 57 87 57C87 54.3333 87 51.6667 87 49C88 49 89 49 90 49C90 37.6667 90 26.3333 90 15Z" fill="#FEFFFE"/>
<path opacity="0.86" fill-rule="evenodd" clip-rule="evenodd" d="M150.5 14.5C158.84 14.3336 167.173 14.5003 175.5 15C176.333 15.8333 177.167 16.6667 178 17.5C178.5 26.8274 178.666 36.1607 178.5 45.5C175.167 45.5 171.833 45.5 168.5 45.5C168.5 36.8333 168.5 28.1667 168.5 19.5C164.833 19.5 161.167 19.5 157.5 19.5C157.5 28.1667 157.5 36.8333 157.5 45.5C154.167 45.5 150.833 45.5 147.5 45.5C147.334 36.4938 147.5 27.4938 148 18.5C148.662 17.0161 149.496 15.6828 150.5 14.5Z" fill="#FEFFFE"/>
<path opacity="0.016" fill-rule="evenodd" clip-rule="evenodd" d="M211.5 14.5C212.833 15.1667 212.833 15.1667 211.5 14.5Z" fill="#FEFFFE"/>
<path opacity="0.065" fill-rule="evenodd" clip-rule="evenodd" d="M127.5 48.4999C127.897 47.4749 128.563 47.3082 129.5 47.9999C128.906 48.4642 128.239 48.6309 127.5 48.4999Z" fill="#FEFFFE"/>
<path opacity="0.029" fill-rule="evenodd" clip-rule="evenodd" d="M134.5 48.5C135.601 47.4017 136.934 47.235 138.5 48C137.207 48.49 135.873 48.6567 134.5 48.5Z" fill="#FEFFFE"/>
<path opacity="0.03" fill-rule="evenodd" clip-rule="evenodd" d="M139.5 48.4999C140.251 47.4264 141.251 47.2598 142.5 47.9999C141.552 48.4827 140.552 48.6494 139.5 48.4999Z" fill="#FEFFFE"/>
<path opacity="0.01" fill-rule="evenodd" clip-rule="evenodd" d="M150.5 48.4999C151.251 47.4264 152.251 47.2598 153.5 47.9999C152.552 48.4827 151.552 48.6494 150.5 48.4999Z" fill="#FEFFFE"/>
<path opacity="0.035" fill-rule="evenodd" clip-rule="evenodd" d="M157.5 48.5C159.288 47.3775 161.288 47.2109 163.5 48C161.527 48.4955 159.527 48.6621 157.5 48.5Z" fill="#FEFFFE"/>
<path opacity="0.01" fill-rule="evenodd" clip-rule="evenodd" d="M173.5 48.4999C174.251 47.4264 175.251 47.2598 176.5 47.9999C175.552 48.4827 174.552 48.6494 173.5 48.4999Z" fill="#FEFFFE"/>
<path opacity="0.01" fill-rule="evenodd" clip-rule="evenodd" d="M186.5 48.4999C186.897 47.4749 187.563 47.3082 188.5 47.9999C187.906 48.4642 187.239 48.6309 186.5 48.4999Z" fill="#FEFFFE"/>
<path opacity="0.053" fill-rule="evenodd" clip-rule="evenodd" d="M193.5 48.5C194.946 47.3871 196.613 47.2204 198.5 48C196.866 48.4935 195.199 48.6602 193.5 48.5Z" fill="#FEFFFE"/>
<path opacity="0.01" fill-rule="evenodd" clip-rule="evenodd" d="M203.5 48.4999C203.897 47.4749 204.563 47.3082 205.5 47.9999C204.906 48.4642 204.239 48.6309 203.5 48.4999Z" fill="#FEFFFE"/>
<path opacity="0.01" fill-rule="evenodd" clip-rule="evenodd" d="M206.5 48.4999C206.897 47.4749 207.563 47.3082 208.5 47.9999C207.906 48.4642 207.239 48.6309 206.5 48.4999Z" fill="#FEFFFE"/>
</svg>
