<svg width="673" height="189" viewBox="0 0 673 189" fill="none" xmlns="http://www.w3.org/2000/svg">
<path fill-rule="evenodd" clip-rule="evenodd" d="M144.5 18.5C143.855 23.0882 143.855 27.2549 144.5 31C145.01 32.8261 145.844 32.9928 147 31.5C147.117 34.6287 148.617 35.7954 151.5 35C161.366 23.9677 171.699 13.4677 182.5 3.5C183.347 2.0337 184.68 1.2004 186.5 1C203.123 -1.0471 208.623 5.7862 203 21.5C192.167 47.8333 181.333 74.1667 170.5 100.5C176.472 101.33 182.472 101.83 188.5 102C196.551 104.498 198.717 109.665 195 117.5C192.512 121.325 189.012 123.492 184.5 124C175.5 124.667 166.5 124.667 157.5 124C145.65 122.134 140.817 115.301 143 103.5C144 100.5 145 97.5 146 94.5C153.284 78.618 159.951 62.6183 166 46.5C160.866 52.6353 155.366 58.4687 149.5 64C143.497 68.957 137.997 68.457 133 62.5C131.046 58.0191 129.713 53.3525 129 48.5C123.133 62.2258 117.299 75.8925 111.5 89.5C108.602 91.632 107.102 94.632 107 98.5C106.586 98.043 106.086 97.709 105.5 97.5C104.667 100.5 103.833 103.5 103 106.5C102.28 104.888 102.446 103.388 103.5 102C102.5 101.167 101.5 100.333 100.5 99.5C102.566 93.315 101.4 92.315 97 96.5C96.667 98.167 96.333 99.833 96 101.5C94.458 99.696 92.791 98.029 91 96.5C90.692 97.308 90.192 97.975 89.5 98.5C88.582 95.516 87.248 92.849 85.5 90.5C96.259 61.3912 108.092 32.7245 121 4.5C125.998 -0.467395 131.498 -1.3007 137.5 2C141.677 6.6918 144.01 12.1918 144.5 18.5Z" fill="#BD0202"/>
<path opacity="0.878" fill-rule="evenodd" clip-rule="evenodd" d="M182.5 3.5C171.699 13.4677 161.366 23.9677 151.5 35C148.617 35.7954 147.117 34.6287 147 31.5C145.844 32.9928 145.01 32.8261 144.5 31C143.855 27.2549 143.855 23.0882 144.5 18.5C146.285 23.3704 147.952 28.3704 149.5 33.5C158.986 24.5144 168.319 15.3477 177.5 6C179.078 4.9055 180.745 4.0722 182.5 3.5Z" fill="#A61010"/>
<path fill-rule="evenodd" clip-rule="evenodd" d="M483.5 26.5C496.986 25.1521 502.82 31.1521 501 44.5C495.101 53.4393 487.768 54.7726 479 48.5C473.353 39.6507 474.853 32.3174 483.5 26.5Z" fill="#BC0304"/>
<path fill-rule="evenodd" clip-rule="evenodd" d="M239.5 53.5C247.983 52.4499 255.316 54.7832 261.5 60.5C268.096 52.9361 274.929 52.6028 282 59.5C283.54 62.7248 283.54 66.0581 282 69.5C277.5 80.5 273 91.5 268.5 102.5C273.132 103.328 277.798 103.828 282.5 104C287.305 105.763 289.472 109.263 289 114.5C296 97.167 303 79.833 310 62.5C315.982 53.4123 322.982 52.4123 331 59.5C342.22 51.0423 352.887 51.709 363 61.5C370.772 80.511 368.439 98.177 356 114.5C346.67 123.628 335.503 126.795 322.5 124C318.363 123.349 314.863 121.515 312 118.5C304.408 136.022 297.075 153.689 290 171.5C287.917 177.896 284.084 182.729 278.5 186C270.78 187.98 266.114 185.147 264.5 177.5C270.778 158.834 277.945 140.501 286 122.5C286.595 118.825 285.762 118.658 283.5 122C281.608 122.973 279.608 123.64 277.5 124C271.167 124.667 264.833 124.667 258.5 124C255.379 123.274 252.713 121.774 250.5 119.5C247.779 121.527 244.779 123.027 241.5 124C214.885 127.718 203.052 116.218 206 89.5C210.581 71.0946 221.747 59.0946 239.5 53.5ZM245.5 72.5C249.354 72.6267 252.021 74.46 253.5 78C251.003 84.822 248.503 91.656 246 98.5C245.052 100.57 243.552 102.07 241.5 103C238.167 103.667 234.833 103.667 231.5 103C230.333 102.5 229.5 101.667 229 100.5C227.099 86.616 232.599 77.282 245.5 72.5ZM335.5 72.5C339.684 71.7036 342.85 73.037 345 76.5C346.164 86.342 343.33 94.842 336.5 102C332.289 103.534 327.956 103.867 323.5 103C321.787 101.622 320.453 99.955 319.5 98C322.329 91.517 325.163 85.017 328 78.5C329.985 75.7396 332.485 73.7396 335.5 72.5Z" fill="#BC0203"/>
<path fill-rule="evenodd" clip-rule="evenodd" d="M421.5 53.5C435.006 52.4968 443.506 58.4968 447 71.5C450.272 91.7 444.105 108.2 428.5 121C417.141 125.63 405.807 125.63 394.5 121C393.667 120.167 392.833 119.333 392 118.5C383.537 138.881 374.87 159.214 366 179.5C360.279 187.464 353.612 188.464 346 182.5C344.119 177.747 344.453 173.08 347 168.5C361.333 133.167 375.667 97.833 390 62.5C395.982 53.4123 402.982 52.4123 411 59.5C414.069 56.5545 417.569 54.5545 421.5 53.5ZM415.5 72.5C419.684 71.7036 422.85 73.037 425 76.5C426.164 86.342 423.33 94.842 416.5 102C412.289 103.534 407.956 103.867 403.5 103C401.787 101.622 400.453 99.955 399.5 98C402.329 91.517 405.163 85.017 408 78.5C409.985 75.7396 412.485 73.7396 415.5 72.5Z" fill="#BC0303"/>
<path fill-rule="evenodd" clip-rule="evenodd" d="M555.5 53.5C572.745 51.9183 580.912 59.585 580 76.5C576.777 85.28 573.277 93.946 569.5 102.5C574.467 103.329 579.467 103.829 584.5 104C592.42 107.925 593.586 113.425 588 120.5C585.696 122.068 583.196 123.235 580.5 124C571.167 124.667 561.833 124.667 552.5 124C546.947 121.786 543.613 117.786 542.5 112C546.304 100.921 550.304 89.921 554.5 79C554.187 75.6893 552.353 74.1893 549 74.5C543.494 74.9188 539.494 77.585 537 82.5C531.942 94.95 526.609 107.283 521 119.5C513.753 127.384 506.753 127.384 500 119.5C499.333 117.5 499.333 115.5 500 113.5C506.895 94.808 514.561 76.4745 523 58.5C530.37 52.9125 537.036 53.5792 543 60.5C546.863 57.4354 551.03 55.1021 555.5 53.5Z" fill="#BC0303"/>
<path fill-rule="evenodd" clip-rule="evenodd" d="M566.5 144.5C570.304 139.864 574.638 135.697 579.5 132C581.134 131.506 582.801 131.34 584.5 131.5C584.714 133.144 584.38 134.644 583.5 136C584.617 137.892 586.284 138.725 588.5 138.5C588.66 136.801 588.494 135.134 588 133.5C587.111 134.888 586.611 134.722 586.5 133C588.145 131.355 589.812 129.688 591.5 128C603.192 127.747 614.858 127.247 626.5 126.5C626.942 122.153 627.775 121.82 629 125.5C630.44 124.07 630.774 122.403 630 120.5C629.667 120.833 629.333 121.167 629 121.5C628.044 120.106 626.711 119.439 625 119.5C622.263 120.54 619.429 121.207 616.5 121.5C612.368 121.423 608.368 120.756 604.5 119.5C600.781 116.946 597.948 113.613 596 109.5C591.746 90.597 596.912 74.7633 611.5 62C624.036 51.8143 637.036 50.9809 650.5 59.5C655.929 53.1781 662.262 52.0115 669.5 56C670.786 58.0223 671.786 60.1889 672.5 62.5C664.85 83.618 656.517 104.451 647.5 125C653.61 125.088 659.61 125.755 665.5 127C671.331 134.014 670.331 140.014 662.5 145C654.885 146.146 647.218 146.812 639.5 147C635.898 155.485 631.732 163.651 627 171.5C612.173 190.38 594.34 193.88 573.5 182C561.739 171.115 559.405 158.615 566.5 144.5ZM632.5 72.5C637.803 71.4761 641.136 73.4761 642.5 78.5C640.025 86.948 636.358 94.781 631.5 102C629.645 102.422 627.811 102.922 626 103.5C620.481 103.315 617.648 100.481 617.5 95C618.39 84.635 623.39 77.135 632.5 72.5ZM595.5 146.5C601.868 146.17 608.202 146.504 614.5 147.5C611.511 155.69 606.511 162.19 599.5 167C589.545 169.365 584.712 165.532 585 155.5C587.065 150.732 590.565 147.732 595.5 146.5Z" fill="#BC0202"/>
<path fill-rule="evenodd" clip-rule="evenodd" d="M85.4999 90.5C87.2479 92.849 88.5819 95.516 89.4999 98.5C90.1919 97.975 90.6919 97.308 90.9999 96.5C92.7909 98.029 94.4579 99.696 95.9999 101.5C96.3329 99.833 96.6669 98.167 96.9999 96.5C101.4 92.315 102.566 93.315 100.5 99.5C101.5 100.333 102.5 101.167 103.5 102C102.446 103.388 102.28 104.888 103 106.5C103.833 103.5 104.667 100.5 105.5 97.5C106.086 97.709 106.586 98.043 107 98.5C107.102 94.632 108.602 91.632 111.5 89.5C105.111 107.507 97.2769 124.841 87.9999 141.5C81.6379 151.043 73.1379 157.71 62.4999 161.5C51.2649 163.707 39.9316 164.04 28.4999 162.5C9.59135 155.38 0.257948 141.546 0.499948 121C4.32565 88.497 21.9923 67.4968 53.4999 58C62.7118 55.7104 72.0449 55.0437 81.4999 56C91.8239 61.2679 93.1579 68.2679 85.4999 77C74.0259 79.024 62.6925 81.691 51.4999 85C30.6996 95.419 23.8663 111.585 30.9999 133.5C38.921 141.236 47.7544 142.402 57.4999 137C60.63 134.872 63.4633 132.372 65.9999 129.5C73.6009 116.966 80.1009 103.966 85.4999 90.5Z" fill="#BC0303"/>
<path fill-rule="evenodd" clip-rule="evenodd" d="M479.5 54.5C482.915 54.0189 486.248 54.8522 489.5 57C491.742 58.9857 492.742 61.4857 492.5 64.5C488.624 77.797 483.957 90.797 478.5 103.5C483.179 103.334 487.845 103.501 492.5 104C494.587 104.792 496.421 105.959 498 107.5C500.274 116.21 497.107 121.71 488.5 124C480.167 124.667 471.833 124.667 463.5 124C451.506 120.493 448.339 112.993 454 101.5C459.277 89.28 464.277 76.9467 469 64.5C471.106 59.5573 474.606 56.224 479.5 54.5Z" fill="#BB0303"/>
<path fill-rule="evenodd" clip-rule="evenodd" d="M604.5 119.5C608.368 120.756 612.368 121.423 616.5 121.5C619.429 121.207 622.263 120.54 625 119.5C626.711 119.439 628.044 120.106 629 121.5C629.333 121.167 629.667 120.833 630 120.5C630.774 122.403 630.44 124.07 629 125.5C627.775 121.82 626.942 122.153 626.5 126.5C614.858 127.247 603.192 127.747 591.5 128C589.812 129.688 588.145 131.355 586.5 133C586.611 134.722 587.111 134.888 588 133.5C588.494 135.134 588.66 136.801 588.5 138.5C586.284 138.725 584.617 137.892 583.5 136C584.38 134.644 584.714 133.144 584.5 131.5C582.801 131.34 581.134 131.506 579.5 132C574.638 135.697 570.304 139.864 566.5 144.5C572.436 133.43 581.769 127.263 594.5 126C604.167 125.667 613.833 125.333 623.5 125C624.772 123.754 625.105 122.587 624.5 121.5C617.373 124.478 610.706 123.812 604.5 119.5Z" fill="#AA0C0B"/>
<path opacity="0.89" fill-rule="evenodd" clip-rule="evenodd" d="M62.5 161.5C56.9398 164.215 50.9398 165.548 44.5 165.5C38.8338 165.558 33.5005 164.558 28.5 162.5C39.9317 164.04 51.265 163.707 62.5 161.5Z" fill="#9F0E10"/>
</svg>
